<svg width="50" height="59" viewBox="0 0 50 59" fill="none" xmlns="http://www.w3.org/2000/svg">
<g clip-path="url(#clip0_2_1334)">
<path d="M46.8497 49.3837H39.7774C39.3728 49.3837 39.045 49.7707 39.045 50.248C39.045 50.7253 39.3728 51.1122 39.7774 51.1122H46.1173V51.5998L35.4526 53.9897H14.0748L3.41016 51.5998V51.1122H6.32227C6.32345 51.1122 6.32462 51.1125 6.32569 51.1125C6.32657 51.1125 6.32755 51.1122 6.32843 51.1122H8.9673C8.96818 51.1122 8.96896 51.1125 8.96984 51.1125C8.97121 51.1125 8.97267 51.1122 8.97404 51.1122H17.755C17.7555 51.1122 17.756 51.1124 17.7566 51.1124C17.7571 51.1124 17.7575 51.1122 17.7579 51.1122H20.3746C20.3754 51.1122 20.3762 51.1125 20.377 51.1125C20.3778 51.1125 20.3786 51.1122 20.3794 51.1122H29.148C29.1489 51.1122 29.1497 51.1125 29.1504 51.1125C29.1512 51.1125 29.152 51.1122 29.1527 51.1122H37.0576C37.4622 51.1122 37.79 50.7253 37.79 50.248C37.79 49.7707 37.4622 49.3837 37.0576 49.3837H32.3334C33.2081 48.7278 34.0244 47.9597 34.7583 47.0943C35.8175 45.8437 36.6872 44.4293 37.3518 42.9002C38.278 43.3453 39.2587 43.5713 40.2754 43.5713C44.5649 43.5713 48.0547 39.4528 48.0547 34.3906C48.0547 29.3289 44.5649 25.211 40.2754 25.211C39.8105 25.211 39.35 25.2607 38.8974 25.3564V24.8619C38.8974 23.7557 38.1347 22.8557 37.1973 22.8557H33.7334C33.3288 22.8557 33.0009 23.2427 33.0009 23.72C33.0009 24.1973 33.3288 24.5842 33.7334 24.5842H37.1973C37.327 24.5842 37.4326 24.7088 37.4326 24.8619V26.3312H12.0937V24.8619C12.0937 24.7088 12.1992 24.5842 12.329 24.5842H31.0127C31.4172 24.5842 31.7451 24.1973 31.7451 23.72C31.7451 23.2427 31.4172 22.8557 31.0127 22.8557H12.329C11.3915 22.8557 10.6288 23.7557 10.6288 24.8619V35.2999C10.6288 36.6034 10.758 37.8958 11.0098 39.151C9.81769 38.7316 8.39718 39.0611 7.10108 40.1076C6.7672 40.3771 6.68165 40.9149 6.91007 41.3089C7.13858 41.7028 7.59444 41.8036 7.92823 41.5342C8.77765 40.8484 9.66906 40.5792 10.4062 40.7535L7.73839 45.4633C7.51359 45.8602 7.60402 46.397 7.94025 46.6621C8.06525 46.7608 8.20675 46.808 8.3466 46.808C8.58302 46.808 8.81505 46.6732 8.95617 46.4239L11.6247 41.7125C11.9015 42.1972 12.0531 42.8316 12.0603 43.571C12.0603 43.5713 12.0603 43.5715 12.0603 43.5719C12.0603 43.5735 12.0604 43.5751 12.0604 43.5767C12.0702 44.7185 11.7321 45.9534 11.1086 47.0541C10.7531 47.6818 10.3328 48.2201 9.85685 48.6561C9.52687 48.9611 9.18019 49.205 8.82501 49.3837H6.51124C6.48478 49.3651 6.45841 49.3463 6.43214 49.3253C5.2127 48.3643 5.13555 45.8788 6.25645 43.6668C6.46407 43.2572 6.35099 42.7264 6.00382 42.4814C5.65684 42.2367 5.20694 42.3699 4.99932 42.7796C4.28477 44.1895 3.93575 45.7604 4.01661 47.203C4.0625 48.0215 4.24405 48.7592 4.54288 49.3836H2.67774C2.27315 49.3836 1.94531 49.7706 1.94531 50.2479V52.3152C1.94531 52.7304 2.19551 53.0868 2.54111 53.1642L13.3116 55.5778V58.1356C13.3116 58.6129 13.6395 58.9998 14.0441 58.9998H35.4824C35.887 58.9998 36.2148 58.6129 36.2148 58.1356V55.578L46.9863 53.1642C47.3319 53.0868 47.5821 52.7303 47.5821 52.3152V50.2479C47.5821 49.7707 47.2542 49.3837 46.8497 49.3837ZM38.8973 35.2997V31.2107H38.8974C39.3218 30.9536 39.7912 30.8171 40.2754 30.8171C41.9452 30.8171 43.3037 32.4202 43.3037 34.3906C43.3037 36.361 41.9452 37.964 40.2754 37.964C39.7432 37.964 39.231 37.8009 38.776 37.4935C38.8559 36.7719 38.8973 36.0396 38.8973 35.2997ZM38.4979 39.2608C39.0548 39.5445 39.6563 39.6926 40.2754 39.6926C42.7529 39.6926 44.7685 37.3142 44.7685 34.3907C44.7685 31.4672 42.7529 29.0887 40.2754 29.0887C39.8027 29.0887 39.339 29.176 38.8974 29.3439V27.2043C38.8974 27.2013 38.8978 27.1984 38.8978 27.1954C38.8978 27.1924 38.8974 27.1896 38.8974 27.1866V27.1187C39.347 27.0002 39.8086 26.9395 40.2755 26.9395C43.7572 26.9395 46.5899 30.282 46.5899 34.3906C46.5899 38.4997 43.7572 41.8428 40.2755 41.8428C39.4679 41.8428 38.6895 41.6652 37.9529 41.3199C38.1723 40.6498 38.3539 39.962 38.4979 39.2608ZM12.0937 28.0597H37.4326V30.72C37.4326 30.7209 37.4326 30.722 37.4326 30.7229V35.2998C37.4326 39.2931 36.1149 43.0478 33.7225 45.872C32.397 47.435 30.7736 48.6463 29.022 49.3837H20.5063C20.2701 49.2845 20.035 49.1778 19.8029 49.0611C20.3403 48.0641 20.5451 46.9548 20.3682 45.8977C20.368 45.8963 20.3679 45.895 20.3677 45.8936C20.3674 45.892 20.3669 45.8904 20.3667 45.8888C20.1332 44.5135 19.3097 43.3819 18.0472 42.7022C16.8646 42.0655 15.4192 41.9007 13.9771 42.2386C13.8459 42.2694 13.7159 42.3045 13.587 42.3431C12.6094 40.1866 12.0937 37.7663 12.0937 35.2999V28.0597V28.0597ZM12.3267 48.0145C13.0047 46.8175 13.4139 45.4751 13.5053 44.1743C13.751 44.0766 14.0037 43.9947 14.2626 43.9338C16.1262 43.4973 17.9231 44.159 18.6396 45.4178L13.9325 46.5219C13.5358 46.615 13.2781 47.0698 13.3569 47.538C13.4262 47.9493 13.7322 48.2339 14.0745 48.2339C14.1218 48.2339 14.1699 48.2285 14.2181 48.2171L18.9281 47.1122C18.8341 47.6808 18.5656 48.2507 18.1354 48.7744C18.1342 48.7758 18.1331 48.7773 18.1321 48.7786C17.9527 48.9959 17.7498 49.1981 17.5289 49.3835H11.3706C11.7217 48.975 12.0419 48.5174 12.3267 48.0145ZM34.75 57.2715H14.7764V55.7182H34.75V57.2715Z" fill="white"/>
<path d="M26.6697 17.2793C26.6564 17.2892 26.6456 17.2972 26.6378 17.303C26.6451 17.2975 26.6558 17.2896 26.6697 17.2793Z" fill="white"/>
<path d="M26.6381 17.303C26.618 17.3174 26.6205 17.3156 26.6381 17.303V17.303Z" fill="white"/>
<path d="M28.2554 9.43403C29.2418 8.32778 29.8098 6.79481 29.8098 5.14926C29.8098 3.10097 28.9311 1.22575 27.4592 0.132869C27.1169 -0.121339 26.6645 0.000118248 26.4493 0.404131C26.2338 0.808143 26.3368 1.34168 26.6792 1.59589C27.7223 2.37038 28.3451 3.69869 28.3451 5.14915C28.3451 6.5996 27.7223 7.92791 26.6792 8.7024C26.2314 9.03382 26.2314 9.83286 26.6792 10.1654C27.7223 10.9399 28.3451 12.2682 28.3451 13.7187C28.3452 15.1693 27.7224 16.4977 26.6793 17.2722C26.6754 17.2749 26.673 17.2768 26.6697 17.2793C26.6728 17.277 26.6758 17.2748 26.6793 17.2723C26.3369 17.5265 26.2339 18.06 26.4494 18.464C26.5885 18.7252 26.8265 18.8682 27.0699 18.8682C27.2032 18.8682 27.3381 18.8252 27.4592 18.7353C28.9311 17.6425 29.8098 15.7672 29.8098 13.719C29.8098 12.0732 29.2417 10.5403 28.2554 9.43403ZM27.0613 16.9885C27.0786 16.9757 27.0807 16.9741 27.0613 16.9885V16.9885ZM26.9659 17.0594C26.9819 17.0475 26.9967 17.0365 27.0101 17.0266C26.9973 17.0361 26.983 17.0468 26.9659 17.0594Z" fill="white"/>
<path d="M32.6137 8.70272C32.2714 8.44851 31.8191 8.56985 31.6038 8.97398C31.3883 9.37788 31.4913 9.91153 31.8336 10.1657C32.8767 10.9402 33.4995 12.2687 33.4995 13.7191C33.4996 15.1693 32.8768 16.4978 31.8337 17.2723C31.4913 17.5265 31.3884 18.06 31.6038 18.464C31.743 18.7251 31.981 18.8681 32.2244 18.8681C32.3577 18.8681 32.4926 18.8252 32.6137 18.7353C34.0855 17.6425 34.9642 15.7672 34.9642 13.719C34.9642 11.6708 34.0855 9.79549 32.6137 8.70272Z" fill="white"/>
<path d="M21.8828 8.70245C21.5405 8.44824 21.088 8.5697 20.8728 8.97371C20.6574 9.37772 20.7603 9.91126 21.1027 10.1655C22.1458 10.94 22.7686 12.2683 22.7686 13.7187C22.7687 15.1692 22.1459 16.4976 21.1028 17.2721C20.7604 17.5263 20.6575 18.0598 20.8729 18.4639C21.0121 18.725 21.25 18.868 21.4934 18.868C21.6267 18.868 21.7617 18.825 21.8828 18.7351C23.3546 17.6423 24.2333 15.767 24.2333 13.7188C24.2333 11.6705 23.3546 9.79533 21.8828 8.70245Z" fill="white"/>
</g>
<defs>
<clipPath id="clip0_2_1334">
<rect width="50" height="59" fill="white"/>
</clipPath>
</defs>
</svg>
